<svg xmlns="http://www.w3.org/2000/svg" viewBox="0 0 120 80">
  <path d="M28 52c-10 0-16-7-14-15 2-7 9-10 15-9 1-9 9-15 18-14 7 1 12 5 14 11 7-3 15 0 18 7 3 8-3 17-12 18-8 1-32 2-39 2z" fill="#BFD9F2" stroke="#8FB7DE" stroke-width="2.5" stroke-linejoin="round"/>
  <circle cx="42" cy="36" r="2.6" fill="#3E5C7A"/><circle cx="60" cy="36" r="2.6" fill="#3E5C7A"/>
  <path d="M44 44c4 4 10 4 14 0" fill="none" stroke="#3E5C7A" stroke-width="2.4" stroke-linecap="round"/>
  <circle cx="35" cy="42" r="3.4" fill="#F5B8C0"/><circle cx="67" cy="42" r="3.4" fill="#F5B8C0"/>
</svg>
